<svg width="300" height="100" viewBox="0 0 300 100" fill="none" xmlns="http://www.w3.org/2000/svg">
<path d="M294.103 87.9287C291.525 87.9287 289.533 87.2696 288.127 85.9515C286.721 84.604 286.018 82.6267 286.018 80.0196V58.9727H291.51V79.8878C291.51 81.0009 291.789 81.8651 292.345 82.4802C292.931 83.0954 293.737 83.403 294.762 83.403C295.992 83.403 297.018 83.0807 297.838 82.4363L299.376 86.3469C298.731 86.8742 297.94 87.2696 297.003 87.5333C296.066 87.7969 295.099 87.9287 294.103 87.9287ZM282.151 68.5515V64.1575H297.794V68.5515H282.151Z" fill="#5300BA"/>
<path d="M270.203 87.9284C267.743 87.9284 265.546 87.4158 263.612 86.3905C261.708 85.336 260.214 83.9006 259.131 82.0845C258.047 80.2683 257.505 78.2032 257.505 75.889C257.505 73.5456 258.047 71.4804 259.131 69.6936C260.214 67.8774 261.708 66.4567 263.612 65.4314C265.546 64.4062 267.743 63.8936 270.203 63.8936C272.488 63.8936 274.495 64.3622 276.223 65.2996C277.981 66.2077 279.313 67.5552 280.222 69.342L276.003 71.8026C275.3 70.6895 274.436 69.8693 273.411 69.342C272.415 68.8148 271.331 68.5511 270.159 68.5511C268.812 68.5511 267.596 68.8441 266.512 69.4299C265.429 70.0158 264.579 70.8653 263.964 71.9784C263.349 73.0622 263.041 74.3658 263.041 75.889C263.041 77.4122 263.349 78.7304 263.964 79.8436C264.579 80.9274 265.429 81.7622 266.512 82.3481C267.596 82.934 268.812 83.2269 270.159 83.2269C271.331 83.2269 272.415 82.9633 273.411 82.436C274.436 81.9087 275.3 81.0885 276.003 79.9754L280.222 82.436C279.313 84.1936 277.981 85.5557 276.223 86.5224C274.495 87.4597 272.488 87.9284 270.203 87.9284Z" fill="#5300BA"/>
<path d="M239.461 87.9284C237.469 87.9284 235.711 87.5623 234.188 86.83C232.665 86.0683 231.478 84.9259 230.629 83.4027C229.779 81.8502 229.354 79.9022 229.354 77.5587V64.1572H234.847V76.8118C234.847 78.9209 235.316 80.5027 236.253 81.5572C237.22 82.5825 238.582 83.0951 240.339 83.0951C241.628 83.0951 242.741 82.8315 243.679 82.3042C244.645 81.7769 245.392 80.986 245.92 79.9315C246.476 78.8769 246.754 77.5734 246.754 76.0209V64.1572H252.247V87.6209H247.018V81.2936L247.941 83.2269C247.15 84.7502 245.993 85.9219 244.47 86.7421C242.946 87.533 241.277 87.9284 239.461 87.9284Z" fill="#5300BA"/>
<path d="M209.295 87.9292C207.04 87.9292 205.004 87.4312 203.188 86.4352C201.401 85.41 199.995 84.0039 198.97 82.217C197.944 80.4302 197.432 78.3211 197.432 75.8898C197.432 73.4585 197.944 71.3494 198.97 69.5625C199.995 67.7756 201.401 66.3842 203.188 65.3883C205.004 64.3923 207.04 63.8943 209.295 63.8943C211.258 63.8943 213.015 64.3337 214.568 65.2125C216.121 66.062 217.351 67.3655 218.259 69.1231C219.167 70.8807 219.621 73.1362 219.621 75.8898C219.621 78.614 219.182 80.8696 218.303 82.6564C217.424 84.414 216.208 85.7322 214.656 86.611C213.103 87.4898 211.316 87.9292 209.295 87.9292ZM209.954 83.2277C211.273 83.2277 212.444 82.9347 213.47 82.3489C214.524 81.763 215.359 80.9135 215.974 79.8004C216.619 78.6873 216.941 77.3837 216.941 75.8898C216.941 74.3665 216.619 73.063 215.974 71.9792C215.359 70.866 214.524 70.0165 213.47 69.4307C212.444 68.8448 211.273 68.5519 209.954 68.5519C208.636 68.5519 207.45 68.8448 206.395 69.4307C205.37 70.0165 204.535 70.866 203.891 71.9792C203.276 73.063 202.968 74.3665 202.968 75.8898C202.968 77.3837 203.276 78.6873 203.891 79.8004C204.535 80.9135 205.37 81.763 206.395 82.3489C207.45 82.9347 208.636 83.2277 209.954 83.2277ZM217.073 87.6216V82.0852L217.292 75.8458L216.853 69.6064V55.0186H222.301V87.6216H217.073Z" fill="#5300BA"/>
<path d="M181.59 87.9284C179.188 87.9284 177.05 87.4158 175.175 86.3905C173.3 85.336 171.821 83.9006 170.737 82.0845C169.653 80.2683 169.111 78.2032 169.111 75.889C169.111 73.5456 169.653 71.4804 170.737 69.6936C171.821 67.8774 173.3 66.4567 175.175 65.4314C177.05 64.4062 179.188 63.8936 181.59 63.8936C184.021 63.8936 186.174 64.4062 188.049 65.4314C189.953 66.4567 191.433 67.8627 192.487 69.6496C193.571 71.4365 194.113 73.5163 194.113 75.889C194.113 78.2032 193.571 80.2683 192.487 82.0845C191.433 83.9006 189.953 85.336 188.049 86.3905C186.174 87.4158 184.021 87.9284 181.59 87.9284ZM181.59 83.2269C182.938 83.2269 184.139 82.934 185.193 82.3481C186.248 81.7622 187.068 80.9128 187.654 79.7996C188.269 78.6865 188.576 77.383 188.576 75.889C188.576 74.3658 188.269 73.0622 187.654 71.9784C187.068 70.8653 186.248 70.0158 185.193 69.4299C184.139 68.8441 182.952 68.5511 181.634 68.5511C180.287 68.5511 179.086 68.8441 178.031 69.4299C177.006 70.0158 176.186 70.8653 175.57 71.9784C174.955 73.0622 174.648 74.3658 174.648 75.889C174.648 77.383 174.955 78.6865 175.57 79.7996C176.186 80.9128 177.006 81.7622 178.031 82.3481C179.086 82.934 180.272 83.2269 181.59 83.2269Z" fill="#5300BA"/>
<path d="M153.023 87.6208V64.1572H158.252V70.6163L157.637 68.7269C158.34 67.1451 159.439 65.9441 160.933 65.1239C162.456 64.3037 164.345 63.8936 166.601 63.8936V69.1223C166.366 69.0638 166.147 69.0345 165.942 69.0345C165.737 69.0052 165.532 68.9905 165.326 68.9905C163.247 68.9905 161.592 69.6057 160.361 70.836C159.131 72.037 158.516 73.8385 158.516 76.2405V87.6208H153.023Z" fill="#5300BA"/>
<path d="M122.312 87.6218V56.8643H134.966C137.69 56.8643 140.019 57.3037 141.952 58.1824C143.915 59.0612 145.424 60.3208 146.478 61.9612C147.533 63.6016 148.06 65.5496 148.06 67.8052C148.06 70.0607 147.533 72.0087 146.478 73.6491C145.424 75.2895 143.915 76.5491 141.952 77.4279C140.019 78.3067 137.69 78.7461 134.966 78.7461H125.475L128.024 76.0658V87.6218H122.312ZM128.024 76.6809L125.475 73.9128H134.702C137.222 73.9128 139.111 73.3855 140.371 72.3309C141.66 71.2471 142.304 69.7385 142.304 67.8052C142.304 65.8425 141.66 64.334 140.371 63.2794C139.111 62.2249 137.222 61.6976 134.702 61.6976H125.475L128.024 58.8855V76.6809Z" fill="#5300BA"/>
<path d="M192.342 39.1371V21.4704H195.408V26.237L194.908 24.9704C195.486 23.8148 196.375 22.9148 197.575 22.2704C198.775 21.6259 200.175 21.3037 201.775 21.3037C203.22 21.3037 204.486 21.5815 205.575 22.137C206.686 22.6926 207.553 23.537 208.175 24.6704C208.797 25.8037 209.108 27.237 209.108 28.9704V39.1371H205.908V29.337C205.908 27.6259 205.486 26.337 204.642 25.4704C203.82 24.6037 202.653 24.1704 201.142 24.1704C200.008 24.1704 199.02 24.3926 198.175 24.837C197.331 25.2815 196.675 25.937 196.208 26.8037C195.764 27.6704 195.542 28.7482 195.542 30.037V39.1371H192.342Z" fill="#333333"/>
<path d="M179.798 39.3371C177.909 39.3371 176.242 38.9482 174.798 38.1704C173.376 37.3926 172.265 36.3259 171.465 34.9704C170.687 33.6148 170.298 32.0593 170.298 30.3037C170.298 28.5482 170.676 26.9926 171.431 25.637C172.209 24.2815 173.265 23.2259 174.598 22.4704C175.953 21.6926 177.476 21.3037 179.165 21.3037C180.876 21.3037 182.387 21.6815 183.698 22.437C185.009 23.1926 186.031 24.2593 186.765 25.637C187.52 26.9926 187.898 28.5815 187.898 30.4037C187.898 30.537 187.887 30.6926 187.865 30.8704C187.865 31.0482 187.853 31.2148 187.831 31.3704H172.798V29.0704H186.165L184.865 29.8704C184.887 28.737 184.653 27.7259 184.165 26.837C183.676 25.9482 182.998 25.2593 182.131 24.7704C181.287 24.2593 180.298 24.0037 179.165 24.0037C178.053 24.0037 177.065 24.2593 176.198 24.7704C175.331 25.2593 174.653 25.9593 174.165 26.8704C173.676 27.7593 173.431 28.7815 173.431 29.937V30.4704C173.431 31.6482 173.698 32.7037 174.231 33.637C174.787 34.5482 175.553 35.2593 176.531 35.7704C177.509 36.2815 178.631 36.5371 179.898 36.5371C180.942 36.5371 181.887 36.3593 182.731 36.0037C183.598 35.6482 184.353 35.1148 184.998 34.4037L186.765 36.4704C185.965 37.4037 184.965 38.1148 183.765 38.6037C182.587 39.0926 181.265 39.3371 179.798 39.3371Z" fill="#333333"/>
<path d="M158.577 39.3371C157.11 39.3371 155.766 39.0037 154.543 38.3371C153.343 37.6482 152.377 36.637 151.643 35.3037C150.932 33.9704 150.577 32.3037 150.577 30.3037C150.577 28.3037 150.921 26.637 151.61 25.3037C152.321 23.9704 153.277 22.9704 154.477 22.3037C155.699 21.637 157.066 21.3037 158.577 21.3037C160.31 21.3037 161.843 21.6815 163.177 22.437C164.51 23.1926 165.566 24.2482 166.343 25.6037C167.121 26.937 167.51 28.5037 167.51 30.3037C167.51 32.1037 167.121 33.6815 166.343 35.0371C165.566 36.3926 164.51 37.4482 163.177 38.2037C161.843 38.9593 160.31 39.3371 158.577 39.3371ZM149.21 45.6037V21.4704H152.277V26.237L152.077 30.337L152.41 34.4371V45.6037H149.21ZM158.31 36.5371C159.443 36.5371 160.454 36.2815 161.343 35.7704C162.254 35.2593 162.966 34.537 163.477 33.6037C164.01 32.6482 164.277 31.5482 164.277 30.3037C164.277 29.037 164.01 27.9482 163.477 27.037C162.966 26.1037 162.254 25.3815 161.343 24.8704C160.454 24.3593 159.443 24.1037 158.31 24.1037C157.199 24.1037 156.188 24.3593 155.277 24.8704C154.388 25.3815 153.677 26.1037 153.143 27.037C152.632 27.9482 152.377 29.037 152.377 30.3037C152.377 31.5482 152.632 32.6482 153.143 33.6037C153.677 34.537 154.388 35.2593 155.277 35.7704C156.188 36.2815 157.199 36.5371 158.31 36.5371Z" fill="#333333"/>
<path d="M132.215 39.4028C130.437 39.4028 128.781 39.1028 127.248 38.5028C125.737 37.9028 124.426 37.0695 123.315 36.0028C122.203 34.9139 121.337 33.6473 120.715 32.2028C120.092 30.7584 119.781 29.1806 119.781 27.4695C119.781 25.7584 120.092 24.1806 120.715 22.7361C121.337 21.2917 122.203 20.0361 123.315 18.9695C124.426 17.8806 125.737 17.0361 127.248 16.4361C128.759 15.8361 130.415 15.5361 132.215 15.5361C133.992 15.5361 135.626 15.8361 137.115 16.4361C138.626 17.0139 139.937 17.8472 141.048 18.9361C142.181 20.0028 143.048 21.2584 143.648 22.7028C144.27 24.1472 144.581 25.7361 144.581 27.4695C144.581 29.2028 144.27 30.7917 143.648 32.2361C143.048 33.6806 142.181 34.9473 141.048 36.0361C139.937 37.1028 138.626 37.9361 137.115 38.5361C135.626 39.1139 133.992 39.4028 132.215 39.4028ZM132.215 36.4361C133.503 36.4361 134.692 36.2139 135.781 35.7695C136.892 35.325 137.848 34.7028 138.648 33.9028C139.47 33.0806 140.103 32.125 140.548 31.0361C141.015 29.9472 141.248 28.7584 141.248 27.4695C141.248 26.1806 141.015 24.9917 140.548 23.9028C140.103 22.8139 139.47 21.8695 138.648 21.0695C137.848 20.2472 136.892 19.6139 135.781 19.1695C134.692 18.725 133.503 18.5028 132.215 18.5028C130.903 18.5028 129.692 18.725 128.581 19.1695C127.492 19.6139 126.537 20.2472 125.715 21.0695C124.892 21.8695 124.248 22.8139 123.781 23.9028C123.337 24.9917 123.115 26.1806 123.115 27.4695C123.115 28.7584 123.337 29.9472 123.781 31.0361C124.248 32.125 124.892 33.0806 125.715 33.9028C126.537 34.7028 127.492 35.325 128.581 35.7695C129.692 36.2139 130.903 36.4361 132.215 36.4361Z" fill="#333333"/>
<path d="M-1.33563e-05 76.3889L0 0L100 1.74846e-05L100 76.3889L50 100L-1.33563e-05 76.3889Z" fill="#B980FF"/>
<path d="M0 0H100V11.1111H11.1111L0 0Z" fill="#953FFF"/>
<path d="M88.8896 0H100.001V76.3889L88.8896 70.8333V0Z" fill="#953FFF"/>
<path d="M50 88.8885L100 65.2773V76.3885L50 99.9996V88.8885Z" fill="#5300BA"/>
<path d="M25 64.5829L48.6293 75.694V50.694L25 39.583V64.5829Z" fill="#333333"/>
<path d="M75.0195 64.5829L51.3902 75.694V50.694L75.0195 39.583V64.5829Z" fill="#333333"/>
<path d="M50 48.6102L25 36.8047H50V48.6102Z" fill="#333333"/>
<path d="M50 48.6102L75 36.8047H50V48.6102Z" fill="#333333"/>
<path d="M50 24.9991L25 36.8047H50V24.9991Z" fill="#333333"/>
<path d="M50 24.9991L75 36.8047H50V24.9991Z" fill="#333333"/>
<path d="M30.5557 52.4565L43.0557 58.3326V54.6696L30.5557 48.6104V52.4565Z" fill="#B980FF"/>
</svg>
