<svg width="100" height="100" viewBox="0 0 100 100" fill="none" xmlns="http://www.w3.org/2000/svg">
<path d="M-1.33563e-05 76.3889L0 0L100 1.74846e-05L100 76.3889L50 99.9999L-1.33563e-05 76.3889Z" fill="#B980FF"/>
<path d="M0 0H100V11.1111H11.1111L0 0Z" fill="#953FFF"/>
<path d="M88.8887 0H99.9998V76.3889L88.8887 70.8333V0Z" fill="#953FFF"/>
<path d="M50 88.8884L100 65.2773V76.3884L50 99.9995V88.8884Z" fill="#5300BA"/>
<path d="M25 64.5829L48.6293 75.694V50.694L25 39.583V64.5829Z" fill="#333333"/>
<path d="M75.0186 64.5829L51.3892 75.694V50.694L75.0186 39.583V64.5829Z" fill="#333333"/>
<path d="M50 48.6112L25 36.8057H50V48.6112Z" fill="#333333"/>
<path d="M50 48.6112L75 36.8057H50V48.6112Z" fill="#333333"/>
<path d="M50 25.0001L25 36.8057H50V25.0001Z" fill="#333333"/>
<path d="M50 25.0001L75 36.8057H50V25.0001Z" fill="#333333"/>
<path d="M30.5557 52.4575L43.0557 58.3335V54.6705L30.5557 48.6113V52.4575Z" fill="#B980FF"/>
</svg>
